<?xml version="1.0" standalone="no"?>
<!DOCTYPE svg PUBLIC "-//W3C//DTD SVG 20010904//EN"
 "http://www.w3.org/TR/2001/REC-SVG-20010904/DTD/svg10.dtd">
<svg version="1.0" xmlns="http://www.w3.org/2000/svg"
 width="600.000000pt" height="600.000000pt" viewBox="0 0 600.000000 600.000000"
 preserveAspectRatio="xMidYMid meet">
<metadata>
Created by potrace 1.14, written by Peter Selinger 2001-2017
</metadata>
<g transform="translate(0.000000,600.000000) scale(0.100000,-0.100000)"
fill="#000000" stroke="none">
<path d="M2391 4733 c-17 -106 -18 -110 -49 -126 -29 -15 -101 -55 -167 -93
-22 -12 -65 -36 -95 -52 -30 -17 -75 -42 -100 -56 l-45 -26 55 0 c198 -2 664
1 670 5 4 3 10 23 13 46 3 23 10 45 15 48 8 5 1867 7 1919 2 6 -1 10 -11 8
-23 -2 -13 -6 -45 -10 -71 -4 -27 -8 -56 -10 -65 -1 -10 -10 -57 -19 -107 -10
-49 -22 -107 -27 -127 l-10 -38 -1587 -2 -1587 -3 -7 -40 c-4 -22 -10 -58 -13
-80 -4 -22 -11 -62 -17 -90 -5 -27 -12 -63 -14 -80 -3 -16 -9 -52 -14 -80 -5
-27 -12 -66 -16 -85 -9 -56 -23 -133 -28 -160 -4 -19 -97 -545 -151 -855 -3
-16 -10 -52 -15 -80 -11 -55 -17 -91 -26 -147 l-7 -38 923 0 922 0 -6 -47 c-3
-27 -20 -133 -36 -238 -17 -104 -37 -233 -45 -285 -8 -52 -17 -104 -19 -115
-2 -11 -7 -45 -11 -75 -18 -132 -15 -128 -93 -132 -112 -7 -497 -7 -520 -1
-28 7 -27 9 24 293 33 178 36 199 38 238 l1 34 -354 -1 c-194 0 -355 -1 -357
-3 -2 -2 13 -13 34 -23 44 -23 305 -167 311 -172 3 -2 -3 -47 -13 -101 -10
-53 -19 -108 -21 -122 -2 -14 -20 -117 -40 -229 -19 -112 -33 -207 -30 -210 7
-7 114 -17 290 -28 230 -14 763 -7 860 12 11 2 43 4 71 4 38 1 54 5 58 17 3 9
24 132 46 273 22 141 42 265 44 276 2 11 9 55 16 98 6 43 13 88 15 100 6 30
25 155 31 197 3 19 13 80 22 135 l17 100 606 3 606 2 10 43 c6 23 27 101 46
172 19 72 37 146 41 165 3 19 8 46 11 60 14 71 27 149 31 180 2 19 6 46 9 60
2 14 7 52 10 85 3 33 8 74 10 90 2 17 7 76 10 133 5 81 4 102 -7 103 -7 0
-272 1 -588 2 -377 1 -574 5 -573 12 1 6 4 30 8 55 10 68 44 242 48 247 2 2
292 3 644 4 l640 0 41 167 c23 92 44 183 48 202 4 19 9 40 10 45 11 47 44 253
50 305 3 36 8 79 10 95 1 17 6 85 10 153 l7 122 -1285 0 -1284 0 -13 -77z
m-185 -1016 c5 -5 -34 -255 -41 -267 -2 -3 -6 -27 -9 -55 -4 -27 -12 -79 -19
-114 l-12 -64 -217 -121 c-119 -66 -215 -123 -213 -126 2 -4 619 -5 701 -1 19
1 23 14 43 124 12 67 24 138 27 157 2 19 16 96 30 170 14 74 27 144 28 155 2
11 6 43 10 70 4 28 11 57 15 64 7 10 74 13 310 13 166 0 304 -2 307 -5 5 -5
-6 -93 -20 -153 -2 -12 -7 -39 -10 -60 -4 -22 -11 -66 -17 -99 -6 -33 -13 -71
-15 -85 -3 -14 -9 -50 -16 -80 -6 -30 -12 -66 -13 -80 -2 -14 -6 -39 -10 -56
l-7 -32 606 2 c600 1 606 1 606 -19 0 -33 -29 -203 -52 -312 l-23 -103 -60 0
c-384 -3 -2678 -1 -2681 2 -3 4 51 313 161 923 14 77 25 143 25 147 0 4 12 8
28 10 44 5 533 0 538 -5z"/>
</g>
</svg>
